# xmcd
#
# Track frame offsets: 
#        150
#        22985
#        43875
#        72290
#        105367
#        133207
#        154987
#        181415
#        206227
#        229292
#        265597
#        291617
#        318467
#
# Disc length: 4663 seconds
#
# Revision: 1
# Processed by: cddbd v1.5.2PL0 Copyright (c) Steve Scherf et al.
# Submitted via: ExactAudioCopy v0.95b3
#
DISCID=c712350d
DTITLE=Hardknox - Hardknox [AVCZ-95134]
DYEAR=1999
DGENRE=Electronic
TTITLE0=Coz I Can
TTITLE1=Fire Like This
TTITLE2=Come In Hard
TTITLE3=Coming Back With A Sword
TTITLE4=Just Me 'N' You
TTITLE5=Attitude
TTITLE6=Who's Money
TTITLE7=Resistance Is Futile
TTITLE8=Psycopath
TTITLE9=Ain't Going Down
TTITLE10=Attitude (The Strongroom Mix)
TTITLE11=Do You Wanna Hear Satan?
TTITLE12=Exploration
EXTD=YEAR: 1999
EXTT0=
EXTT1=
EXTT2=
EXTT3=
EXTT4=
EXTT5=
EXTT6=
EXTT7=
EXTT8=
EXTT9=
EXTT10=
EXTT11=
EXTT12=
PLAYORDER=
